<svg height="512pt" viewBox="0 0 512 512" width="512pt" xmlns="http://www.w3.org/2000/svg"><path d="m418.105469 228.984375-330.960938-10.351563-87.144531-123.632812c0-52.382812 42.617188-95 95-95h322c52.382812 0 95 42.617188 95 95zm0 0" fill="#de8144"/><path d="m417 0h-160.773438v223.921875l161.878907 5.0625 93.894531-133.984375c0-52.382812-42.617188-95-95-95zm0 0" fill="#d4702c"/><path d="m418.105469 228.984375 93.894531-133.984375h-512l87.144531 123.632812zm0 0" fill="#bd6015"/><path d="m256.226562 95v128.921875l161.878907 5.0625 93.894531-133.984375zm0 0" fill="#964c10"/><path d="m22.097656 272.152344c5.042969-29.167969 26.859375-52.679688 55.578125-59.894532 3.40625-.855468 6.175781-3.507812 7.226563-6.921874 10.847656-35.167969 36.761718-55.335938 71.097656-55.335938 14.628906 0 28.808594 4.222656 41.011719 12.207031 1.984375 1.300781 4.734375.964844 6.539062-.800781 14.09375-13.804688 32.722657-21.40625 52.449219-21.40625 24.273438 0 47.15625 11.839844 61.210938 31.675781 1.300781 1.832031 3.773437 2.558594 6.164062 1.804688 7.300781-2.308594 14.914062-3.480469 22.625-3.480469 26.425781 0 51.191406 14.160156 64.628906 36.953125 1.105469 1.878906 3.105469 3.046875 5.214844 3.046875h.003906.152344c37.484375 0 69.449219 27.988281 74.351562 65.105469zm0 0" fill="#fdda40"/><path d="m256 273.625 234.351562 1.480469c-4.902343-37.117188-36.867187-65.105469-74.351562-65.105469h-.152344-.003906c-2.109375 0-4.105469-1.167969-5.214844-3.046875-13.4375-22.792969-38.203125-36.953125-64.628906-36.953125-7.710938 0-15.324219 1.171875-22.625 3.480469-2.390625.753906-4.863281.027343-6.164062-1.808594-14.054688-19.832031-36.9375-31.671875-61.210938-31.671875zm0 0" fill="#fda916"/><path d="m0 262v250h512v-250zm0 0" fill="#fde882"/><path d="m256 262v250h256v-250zm0 0" fill="#fdda40"/><path d="m241 292h30v60h-30zm0 0" fill="#fdda40"/><path d="m482 482h-452v-190h181v90h90v-90h181zm0 0" fill="#de8144"/><path d="m301 292v90h-45v100h226v-190zm0 0" fill="#d4702c"/><path d="m256 292h15v60h-15zm0 0" fill="#fda916"/></svg>